<svg width="64" height="64" viewBox="0 0 64 64" fill="none" xmlns="http://www.w3.org/2000/svg">
  <!-- 그라데이션 정의 -->
  <defs>
    <linearGradient id="bgGradient" x1="0%" y1="0%" x2="100%" y2="100%">
      <stop offset="0%" style="stop-color:#3B82F6;stop-opacity:1" />
      <stop offset="100%" style="stop-color:#1E40AF;stop-opacity:1" />
    </linearGradient>
    <linearGradient id="bookGradient" x1="0%" y1="0%" x2="100%" y2="100%">
      <stop offset="0%" style="stop-color:#FFFFFF;stop-opacity:1" />
      <stop offset="100%" style="stop-color:#F8FAFC;stop-opacity:1" />
    </linearGradient>
    <radialGradient id="aiGradient" cx="50%" cy="50%" r="50%">
      <stop offset="0%" style="stop-color:#FCD34D;stop-opacity:1" />
      <stop offset="100%" style="stop-color:#F59E0B;stop-opacity:1" />
    </radialGradient>
  </defs>
  
  <!-- 배경 원 -->
  <circle cx="32" cy="32" r="30" fill="url(#bgGradient)" stroke="#1E40AF" stroke-width="2"/>
  
  <!-- 그림자 효과 -->
  <ellipse cx="32" cy="58" rx="25" ry="3" fill="rgba(0,0,0,0.1)"/>
  
  <!-- 책 본체 -->
  <rect x="16" y="20" width="32" height="24" rx="2" fill="url(#bookGradient)" stroke="#E5E7EB" stroke-width="1"/>
  
  <!-- 책 제목 영역 -->
  <rect x="16" y="20" width="32" height="4" rx="2" fill="#E5E7EB"/>
  
  <!-- 페이지 선들 -->
  <line x1="20" y1="28" x2="44" y2="28" stroke="#9CA3AF" stroke-width="1.5" stroke-linecap="round"/>
  <line x1="20" y1="32" x2="40" y2="32" stroke="#9CA3AF" stroke-width="1.5" stroke-linecap="round"/>
  <line x1="20" y1="36" x2="44" y2="36" stroke="#9CA3AF" stroke-width="1.5" stroke-linecap="round"/>
  <line x1="20" y1="40" x2="42" y2="40" stroke="#9CA3AF" stroke-width="1.5" stroke-linecap="round"/>
  
  <!-- AI 아이콘 배경 -->
  <circle cx="40" cy="16" r="8" fill="url(#aiGradient)" stroke="#F59E0B" stroke-width="1"/>
  
  <!-- AI 별 모양 -->
  <g transform="translate(40,16)">
    <path d="M0,-6 L1.5,-1.5 L6,0 L1.5,1.5 L0,6 L-1.5,1.5 L-6,0 L-1.5,-1.5 Z" fill="white" opacity="0.9"/>
    <circle cx="0" cy="0" r="1.5" fill="white"/>
  </g>
  
  <!-- 하이라이트 효과 -->
  <path d="M32 4 A28 28 0 0 1 55 25" stroke="rgba(255,255,255,0.3)" stroke-width="2" fill="none" stroke-linecap="round"/>
</svg>